<mxfile host="app.diagrams.net" modified="2022-10-10T05:20:03.029Z" agent="5.0 (Windows)" etag="CSWGXpqCx6uPlEkF0Hgj" version="20.4.0" type="github">
  <diagram id="IlXmQVwIlRNlIxaem6aV" name="Page-1">
    <mxGraphModel dx="1038" dy="564" grid="1" gridSize="10" guides="1" tooltips="1" connect="1" arrows="1" fold="1" page="1" pageScale="1" pageWidth="850" pageHeight="1100" math="0" shadow="0">
      <root>
        <mxCell id="0" />
        <mxCell id="1" parent="0" />
        <mxCell id="gBFQYfqRH2RBus-iAmRP-5" value="" style="ellipse;whiteSpace=wrap;html=1;aspect=fixed;strokeColor=#000000;fillColor=#000000;" parent="1" vertex="1">
          <mxGeometry x="5" y="42.5" width="30" height="30" as="geometry" />
        </mxCell>
        <mxCell id="gBFQYfqRH2RBus-iAmRP-7" value="" style="endArrow=classic;html=1;rounded=0;exitX=1;exitY=0.5;exitDx=0;exitDy=0;entryX=0;entryY=0.5;entryDx=0;entryDy=0;" parent="1" source="gBFQYfqRH2RBus-iAmRP-5" edge="1" target="VKoerTB2J1z5HWA6ZFg2-4">
          <mxGeometry width="50" height="50" relative="1" as="geometry">
            <mxPoint x="305" y="190" as="sourcePoint" />
            <mxPoint x="115" y="45" as="targetPoint" />
          </mxGeometry>
        </mxCell>
        <mxCell id="VKoerTB2J1z5HWA6ZFg2-1" value="" style="ellipse;html=1;shape=endState;fillColor=#000000;strokeColor=#ff0000;fontSize=12;fontColor=#000000;" vertex="1" parent="1">
          <mxGeometry x="310" y="470" width="30" height="30" as="geometry" />
        </mxCell>
        <mxCell id="VKoerTB2J1z5HWA6ZFg2-4" value="" style="rounded=1;whiteSpace=wrap;html=1;fontSize=12;fontColor=#000000;verticalAlign=top;" vertex="1" parent="1">
          <mxGeometry x="115" y="15" width="150" height="85" as="geometry" />
        </mxCell>
        <mxCell id="VKoerTB2J1z5HWA6ZFg2-5" value="" style="endArrow=none;html=1;rounded=0;labelBorderColor=none;strokeColor=#000000;fontSize=12;fontColor=#000000;exitX=0;exitY=0.5;exitDx=0;exitDy=0;entryX=1;entryY=0.5;entryDx=0;entryDy=0;" edge="1" parent="1" source="VKoerTB2J1z5HWA6ZFg2-4" target="VKoerTB2J1z5HWA6ZFg2-4">
          <mxGeometry width="50" height="50" relative="1" as="geometry">
            <mxPoint x="365" y="230" as="sourcePoint" />
            <mxPoint x="415" y="180" as="targetPoint" />
          </mxGeometry>
        </mxCell>
        <mxCell id="VKoerTB2J1z5HWA6ZFg2-6" value="Registration" style="text;html=1;strokeColor=none;fillColor=none;align=center;verticalAlign=middle;whiteSpace=wrap;rounded=0;fontSize=15;fontColor=#000000;" vertex="1" parent="1">
          <mxGeometry x="160" y="20" width="60" height="30" as="geometry" />
        </mxCell>
        <mxCell id="VKoerTB2J1z5HWA6ZFg2-7" value="Do: User Registration" style="text;html=1;strokeColor=none;fillColor=none;align=center;verticalAlign=middle;whiteSpace=wrap;rounded=0;fontSize=15;fontColor=#000000;" vertex="1" parent="1">
          <mxGeometry x="115" y="60" width="150" height="30" as="geometry" />
        </mxCell>
        <mxCell id="VKoerTB2J1z5HWA6ZFg2-14" value="" style="rounded=1;whiteSpace=wrap;html=1;fontSize=12;fontColor=#000000;verticalAlign=top;" vertex="1" parent="1">
          <mxGeometry x="365" y="15" width="150" height="85" as="geometry" />
        </mxCell>
        <mxCell id="VKoerTB2J1z5HWA6ZFg2-15" value="" style="endArrow=classic;html=1;rounded=0;exitX=1;exitY=0.5;exitDx=0;exitDy=0;entryX=0;entryY=0.5;entryDx=0;entryDy=0;" edge="1" parent="1" source="VKoerTB2J1z5HWA6ZFg2-4" target="VKoerTB2J1z5HWA6ZFg2-14">
          <mxGeometry width="50" height="50" relative="1" as="geometry">
            <mxPoint x="277.5" y="60" as="sourcePoint" />
            <mxPoint x="357.5" y="60" as="targetPoint" />
          </mxGeometry>
        </mxCell>
        <mxCell id="VKoerTB2J1z5HWA6ZFg2-16" value="Name" style="text;html=1;align=center;verticalAlign=middle;resizable=0;points=[];autosize=1;strokeColor=none;fillColor=none;fontSize=15;fontColor=#000000;" vertex="1" parent="1">
          <mxGeometry x="275" y="30" width="60" height="30" as="geometry" />
        </mxCell>
        <mxCell id="VKoerTB2J1z5HWA6ZFg2-17" value="Email" style="text;html=1;align=center;verticalAlign=middle;resizable=0;points=[];autosize=1;strokeColor=none;fillColor=none;fontSize=15;fontColor=#000000;" vertex="1" parent="1">
          <mxGeometry x="275" y="60" width="60" height="30" as="geometry" />
        </mxCell>
        <mxCell id="VKoerTB2J1z5HWA6ZFg2-18" value="" style="endArrow=none;html=1;rounded=0;labelBorderColor=none;strokeColor=#000000;fontSize=12;fontColor=#000000;exitX=0;exitY=0.5;exitDx=0;exitDy=0;entryX=1;entryY=0.5;entryDx=0;entryDy=0;" edge="1" parent="1" source="VKoerTB2J1z5HWA6ZFg2-14" target="VKoerTB2J1z5HWA6ZFg2-14">
          <mxGeometry width="50" height="50" relative="1" as="geometry">
            <mxPoint x="390" y="70" as="sourcePoint" />
            <mxPoint x="540" y="70" as="targetPoint" />
          </mxGeometry>
        </mxCell>
        <mxCell id="VKoerTB2J1z5HWA6ZFg2-19" value="Login" style="text;html=1;strokeColor=none;fillColor=none;align=center;verticalAlign=middle;whiteSpace=wrap;rounded=0;fontSize=15;fontColor=#000000;" vertex="1" parent="1">
          <mxGeometry x="405" y="10" width="60" height="50" as="geometry" />
        </mxCell>
        <mxCell id="VKoerTB2J1z5HWA6ZFg2-20" value="Do: User Login" style="text;html=1;strokeColor=none;fillColor=none;align=center;verticalAlign=middle;whiteSpace=wrap;rounded=0;fontSize=15;fontColor=#000000;" vertex="1" parent="1">
          <mxGeometry x="385" y="60" width="110" height="30" as="geometry" />
        </mxCell>
        <mxCell id="VKoerTB2J1z5HWA6ZFg2-22" value="" style="endArrow=classic;startArrow=classic;html=1;rounded=0;labelBorderColor=none;strokeColor=#000000;fontSize=15;fontColor=#000000;entryX=0;entryY=0.5;entryDx=0;entryDy=0;" edge="1" parent="1" source="VKoerTB2J1z5HWA6ZFg2-14" target="VKoerTB2J1z5HWA6ZFg2-28">
          <mxGeometry width="50" height="50" relative="1" as="geometry">
            <mxPoint x="365" y="230" as="sourcePoint" />
            <mxPoint x="415" y="180" as="targetPoint" />
          </mxGeometry>
        </mxCell>
        <mxCell id="VKoerTB2J1z5HWA6ZFg2-28" value="" style="rounded=1;whiteSpace=wrap;html=1;fontSize=12;fontColor=#000000;verticalAlign=top;" vertex="1" parent="1">
          <mxGeometry x="655" y="15" width="150" height="85" as="geometry" />
        </mxCell>
        <mxCell id="VKoerTB2J1z5HWA6ZFg2-29" value="" style="endArrow=none;html=1;rounded=0;labelBorderColor=none;strokeColor=#000000;fontSize=15;fontColor=#000000;entryX=1;entryY=0.5;entryDx=0;entryDy=0;exitX=0;exitY=0.5;exitDx=0;exitDy=0;" edge="1" parent="1" source="VKoerTB2J1z5HWA6ZFg2-28" target="VKoerTB2J1z5HWA6ZFg2-28">
          <mxGeometry width="50" height="50" relative="1" as="geometry">
            <mxPoint x="665" y="82.5" as="sourcePoint" />
            <mxPoint x="715" y="32.5" as="targetPoint" />
          </mxGeometry>
        </mxCell>
        <mxCell id="VKoerTB2J1z5HWA6ZFg2-30" value="Role Selection" style="text;html=1;strokeColor=none;fillColor=none;align=center;verticalAlign=middle;whiteSpace=wrap;rounded=0;fontSize=15;fontColor=#000000;" vertex="1" parent="1">
          <mxGeometry x="675" y="20" width="100" height="45" as="geometry" />
        </mxCell>
        <mxCell id="VKoerTB2J1z5HWA6ZFg2-31" value="Do: User selects role" style="text;html=1;strokeColor=none;fillColor=none;align=center;verticalAlign=middle;whiteSpace=wrap;rounded=0;fontSize=15;fontColor=#000000;" vertex="1" parent="1">
          <mxGeometry x="655" y="60" width="150" height="30" as="geometry" />
        </mxCell>
        <mxCell id="VKoerTB2J1z5HWA6ZFg2-32" value="Successful Login" style="text;html=1;align=center;verticalAlign=middle;resizable=0;points=[];autosize=1;strokeColor=none;fillColor=none;fontSize=15;fontColor=#000000;" vertex="1" parent="1">
          <mxGeometry x="515" y="30" width="140" height="30" as="geometry" />
        </mxCell>
        <mxCell id="VKoerTB2J1z5HWA6ZFg2-33" value="Unsuccessful Login" style="text;html=1;align=center;verticalAlign=middle;resizable=0;points=[];autosize=1;strokeColor=none;fillColor=none;fontSize=15;fontColor=#000000;" vertex="1" parent="1">
          <mxGeometry x="510" y="60" width="150" height="30" as="geometry" />
        </mxCell>
        <mxCell id="VKoerTB2J1z5HWA6ZFg2-34" value="" style="endArrow=classic;startArrow=classic;html=1;rounded=0;labelBorderColor=none;strokeColor=#000000;fontSize=12;fontColor=#000000;exitX=0.5;exitY=1;exitDx=0;exitDy=0;" edge="1" parent="1" source="VKoerTB2J1z5HWA6ZFg2-28" target="VKoerTB2J1z5HWA6ZFg2-57">
          <mxGeometry width="50" height="50" relative="1" as="geometry">
            <mxPoint x="585" y="365" as="sourcePoint" />
            <mxPoint x="755" y="190" as="targetPoint" />
          </mxGeometry>
        </mxCell>
        <mxCell id="VKoerTB2J1z5HWA6ZFg2-35" value="" style="endArrow=classic;startArrow=classic;html=1;rounded=0;labelBorderColor=none;strokeColor=#000000;fontSize=12;fontColor=#000000;entryX=0.5;entryY=1;entryDx=0;entryDy=0;exitX=0.5;exitY=0;exitDx=0;exitDy=0;" edge="1" parent="1" source="VKoerTB2J1z5HWA6ZFg2-39" target="VKoerTB2J1z5HWA6ZFg2-28">
          <mxGeometry width="50" height="50" relative="1" as="geometry">
            <mxPoint x="615" y="160" as="sourcePoint" />
            <mxPoint x="705" y="160" as="targetPoint" />
          </mxGeometry>
        </mxCell>
        <mxCell id="VKoerTB2J1z5HWA6ZFg2-37" value="Change Role" style="text;html=1;align=center;verticalAlign=middle;resizable=0;points=[];autosize=1;strokeColor=none;fillColor=none;fontSize=15;fontColor=#000000;" vertex="1" parent="1">
          <mxGeometry x="625" y="120" width="110" height="30" as="geometry" />
        </mxCell>
        <mxCell id="VKoerTB2J1z5HWA6ZFg2-39" value="" style="rounded=1;whiteSpace=wrap;html=1;fontSize=12;fontColor=#000000;verticalAlign=top;" vertex="1" parent="1">
          <mxGeometry x="15" y="180" width="160" height="85" as="geometry" />
        </mxCell>
        <mxCell id="VKoerTB2J1z5HWA6ZFg2-40" value="" style="endArrow=none;html=1;rounded=0;labelBorderColor=none;strokeColor=#000000;fontSize=15;fontColor=#000000;exitX=0;exitY=0.5;exitDx=0;exitDy=0;entryX=1;entryY=0.5;entryDx=0;entryDy=0;" edge="1" parent="1" source="VKoerTB2J1z5HWA6ZFg2-39" target="VKoerTB2J1z5HWA6ZFg2-39">
          <mxGeometry width="50" height="50" relative="1" as="geometry">
            <mxPoint x="380" y="280" as="sourcePoint" />
            <mxPoint x="430" y="230" as="targetPoint" />
          </mxGeometry>
        </mxCell>
        <mxCell id="VKoerTB2J1z5HWA6ZFg2-41" value="Do: Enters Availibility " style="text;html=1;strokeColor=none;fillColor=none;align=center;verticalAlign=middle;whiteSpace=wrap;rounded=0;fontSize=15;fontColor=#000000;" vertex="1" parent="1">
          <mxGeometry x="20" y="230" width="150" height="30" as="geometry" />
        </mxCell>
        <mxCell id="VKoerTB2J1z5HWA6ZFg2-42" value="Avalibility" style="text;html=1;strokeColor=none;fillColor=none;align=center;verticalAlign=middle;whiteSpace=wrap;rounded=0;fontSize=15;fontColor=#000000;" vertex="1" parent="1">
          <mxGeometry x="65" y="190" width="60" height="30" as="geometry" />
        </mxCell>
        <mxCell id="VKoerTB2J1z5HWA6ZFg2-44" value="&lt;div&gt;Appointment Scheduler&lt;br&gt;&lt;/div&gt;" style="text;html=1;strokeColor=none;fillColor=none;align=center;verticalAlign=middle;whiteSpace=wrap;rounded=0;fontSize=15;fontColor=#000000;" vertex="1" parent="1">
          <mxGeometry x="190" y="120" width="230" height="30" as="geometry" />
        </mxCell>
        <mxCell id="VKoerTB2J1z5HWA6ZFg2-45" value="&lt;div&gt;Appointment&lt;/div&gt;&lt;div&gt;Receiver&lt;/div&gt;" style="text;html=1;strokeColor=none;fillColor=none;align=center;verticalAlign=middle;whiteSpace=wrap;rounded=0;fontSize=15;fontColor=#000000;" vertex="1" parent="1">
          <mxGeometry x="740" y="120" width="90" height="30" as="geometry" />
        </mxCell>
        <mxCell id="VKoerTB2J1z5HWA6ZFg2-47" value="" style="endArrow=classic;html=1;rounded=0;labelBorderColor=none;strokeColor=#000000;fontSize=15;fontColor=#000000;exitX=1;exitY=0.5;exitDx=0;exitDy=0;entryX=0;entryY=0.5;entryDx=0;entryDy=0;" edge="1" parent="1" source="VKoerTB2J1z5HWA6ZFg2-39" target="VKoerTB2J1z5HWA6ZFg2-48">
          <mxGeometry width="50" height="50" relative="1" as="geometry">
            <mxPoint x="380" y="280" as="sourcePoint" />
            <mxPoint x="280" y="223" as="targetPoint" />
          </mxGeometry>
        </mxCell>
        <mxCell id="VKoerTB2J1z5HWA6ZFg2-48" value="" style="rounded=1;whiteSpace=wrap;html=1;fontSize=12;fontColor=#000000;verticalAlign=top;" vertex="1" parent="1">
          <mxGeometry x="250" y="180" width="165" height="85" as="geometry" />
        </mxCell>
        <mxCell id="VKoerTB2J1z5HWA6ZFg2-49" value="" style="endArrow=none;html=1;rounded=0;labelBorderColor=none;strokeColor=#000000;fontSize=15;fontColor=#000000;exitX=0;exitY=0.5;exitDx=0;exitDy=0;entryX=1;entryY=0.5;entryDx=0;entryDy=0;" edge="1" parent="1" source="VKoerTB2J1z5HWA6ZFg2-48" target="VKoerTB2J1z5HWA6ZFg2-48">
          <mxGeometry width="50" height="50" relative="1" as="geometry">
            <mxPoint x="25" y="232.5" as="sourcePoint" />
            <mxPoint x="185" y="232.5" as="targetPoint" />
          </mxGeometry>
        </mxCell>
        <mxCell id="VKoerTB2J1z5HWA6ZFg2-52" value="Time Slots" style="text;html=1;strokeColor=none;fillColor=none;align=center;verticalAlign=middle;whiteSpace=wrap;rounded=0;fontSize=15;fontColor=#000000;" vertex="1" parent="1">
          <mxGeometry x="170" y="230" width="80" height="30" as="geometry" />
        </mxCell>
        <mxCell id="VKoerTB2J1z5HWA6ZFg2-54" value="Request Management" style="text;html=1;strokeColor=none;fillColor=none;align=center;verticalAlign=middle;whiteSpace=wrap;rounded=0;fontSize=15;fontColor=#000000;" vertex="1" parent="1">
          <mxGeometry x="257.5" y="190" width="150" height="30" as="geometry" />
        </mxCell>
        <mxCell id="VKoerTB2J1z5HWA6ZFg2-55" value="Do: View, Accept, Reject, Rescheduling" style="text;html=1;strokeColor=none;fillColor=none;align=center;verticalAlign=middle;whiteSpace=wrap;rounded=0;fontSize=15;fontColor=#000000;" vertex="1" parent="1">
          <mxGeometry x="260" y="230" width="150" height="30" as="geometry" />
        </mxCell>
        <mxCell id="VKoerTB2J1z5HWA6ZFg2-56" value="&lt;div&gt;Rejecting&lt;/div&gt;&lt;div&gt;Appointment&lt;br&gt;&lt;/div&gt;" style="text;html=1;strokeColor=none;fillColor=none;align=center;verticalAlign=middle;whiteSpace=wrap;rounded=0;fontSize=15;fontColor=#000000;" vertex="1" parent="1">
          <mxGeometry x="265" y="370" width="87.5" height="40" as="geometry" />
        </mxCell>
        <mxCell id="VKoerTB2J1z5HWA6ZFg2-57" value="" style="rounded=1;whiteSpace=wrap;html=1;strokeColor=default;fontSize=15;fontColor=#000000;fillColor=default;" vertex="1" parent="1">
          <mxGeometry x="670" y="175" width="150" height="85" as="geometry" />
        </mxCell>
        <mxCell id="VKoerTB2J1z5HWA6ZFg2-58" value="" style="endArrow=none;html=1;rounded=0;labelBorderColor=none;strokeColor=#000000;fontSize=15;fontColor=#000000;entryX=1;entryY=0.5;entryDx=0;entryDy=0;exitX=0;exitY=0.5;exitDx=0;exitDy=0;" edge="1" parent="1" source="VKoerTB2J1z5HWA6ZFg2-57" target="VKoerTB2J1z5HWA6ZFg2-57">
          <mxGeometry width="50" height="50" relative="1" as="geometry">
            <mxPoint x="380" y="310" as="sourcePoint" />
            <mxPoint x="430" y="260" as="targetPoint" />
          </mxGeometry>
        </mxCell>
        <mxCell id="VKoerTB2J1z5HWA6ZFg2-59" value="Profile Finding" style="text;html=1;strokeColor=none;fillColor=none;align=center;verticalAlign=middle;whiteSpace=wrap;rounded=0;fontSize=15;fontColor=#000000;" vertex="1" parent="1">
          <mxGeometry x="680" y="180" width="130" height="30" as="geometry" />
        </mxCell>
        <mxCell id="VKoerTB2J1z5HWA6ZFg2-61" value="&lt;div&gt;Do: Search &amp;amp; View&lt;/div&gt;profile" style="text;html=1;strokeColor=none;fillColor=none;align=center;verticalAlign=middle;whiteSpace=wrap;rounded=0;fontSize=15;fontColor=#000000;" vertex="1" parent="1">
          <mxGeometry x="675" y="220" width="140" height="30" as="geometry" />
        </mxCell>
        <mxCell id="VKoerTB2J1z5HWA6ZFg2-64" value="" style="rounded=1;whiteSpace=wrap;html=1;fontSize=12;fontColor=#000000;verticalAlign=top;" vertex="1" parent="1">
          <mxGeometry x="665" y="322.5" width="160" height="85" as="geometry" />
        </mxCell>
        <mxCell id="VKoerTB2J1z5HWA6ZFg2-66" value="" style="endArrow=classic;startArrow=classic;html=1;rounded=0;labelBorderColor=none;strokeColor=#000000;fontSize=15;fontColor=#000000;entryX=0.5;entryY=1;entryDx=0;entryDy=0;exitX=0.5;exitY=0;exitDx=0;exitDy=0;" edge="1" parent="1" source="VKoerTB2J1z5HWA6ZFg2-64" target="VKoerTB2J1z5HWA6ZFg2-57">
          <mxGeometry width="50" height="50" relative="1" as="geometry">
            <mxPoint x="580" y="330" as="sourcePoint" />
            <mxPoint x="630" y="280" as="targetPoint" />
          </mxGeometry>
        </mxCell>
        <mxCell id="VKoerTB2J1z5HWA6ZFg2-67" value="" style="endArrow=none;html=1;rounded=0;labelBorderColor=none;strokeColor=#000000;fontSize=15;fontColor=#000000;entryX=1;entryY=0.5;entryDx=0;entryDy=0;exitX=0;exitY=0.5;exitDx=0;exitDy=0;" edge="1" parent="1" source="VKoerTB2J1z5HWA6ZFg2-64" target="VKoerTB2J1z5HWA6ZFg2-64">
          <mxGeometry width="50" height="50" relative="1" as="geometry">
            <mxPoint x="380" y="310" as="sourcePoint" />
            <mxPoint x="430" y="260" as="targetPoint" />
          </mxGeometry>
        </mxCell>
        <mxCell id="VKoerTB2J1z5HWA6ZFg2-68" value="Apoointment Booking" style="text;html=1;strokeColor=none;fillColor=none;align=center;verticalAlign=middle;whiteSpace=wrap;rounded=0;fontSize=15;fontColor=#000000;" vertex="1" parent="1">
          <mxGeometry x="680" y="330" width="130" height="30" as="geometry" />
        </mxCell>
        <mxCell id="VKoerTB2J1z5HWA6ZFg2-69" value="view profile if found" style="text;html=1;strokeColor=none;fillColor=none;align=center;verticalAlign=middle;whiteSpace=wrap;rounded=0;fontSize=15;fontColor=#000000;" vertex="1" parent="1">
          <mxGeometry x="750" y="270" width="80" height="40" as="geometry" />
        </mxCell>
        <mxCell id="VKoerTB2J1z5HWA6ZFg2-71" value="Do:Appointment request by availibility" style="text;html=1;strokeColor=none;fillColor=none;align=center;verticalAlign=middle;whiteSpace=wrap;rounded=0;fontSize=15;fontColor=#000000;" vertex="1" parent="1">
          <mxGeometry x="675" y="370" width="150" height="30" as="geometry" />
        </mxCell>
        <mxCell id="VKoerTB2J1z5HWA6ZFg2-73" value="Find again if not found" style="text;html=1;strokeColor=none;fillColor=none;align=center;verticalAlign=middle;whiteSpace=wrap;rounded=0;fontSize=15;fontColor=#000000;" vertex="1" parent="1">
          <mxGeometry x="655" y="275" width="90" height="30" as="geometry" />
        </mxCell>
        <mxCell id="VKoerTB2J1z5HWA6ZFg2-74" value="" style="rounded=1;whiteSpace=wrap;html=1;strokeColor=default;fontSize=15;fontColor=#000000;fillColor=default;" vertex="1" parent="1">
          <mxGeometry x="652.5" y="460" width="185" height="100" as="geometry" />
        </mxCell>
        <mxCell id="VKoerTB2J1z5HWA6ZFg2-76" value="Time Slots" style="text;html=1;strokeColor=none;fillColor=none;align=center;verticalAlign=middle;whiteSpace=wrap;rounded=0;fontSize=15;fontColor=#000000;" vertex="1" parent="1">
          <mxGeometry x="740" y="420" width="60" height="30" as="geometry" />
        </mxCell>
        <mxCell id="VKoerTB2J1z5HWA6ZFg2-77" value="" style="endArrow=classic;html=1;rounded=0;labelBorderColor=none;strokeColor=#000000;fontSize=15;fontColor=#000000;entryX=0.5;entryY=0;entryDx=0;entryDy=0;exitX=0.5;exitY=1;exitDx=0;exitDy=0;" edge="1" parent="1" source="VKoerTB2J1z5HWA6ZFg2-64" target="VKoerTB2J1z5HWA6ZFg2-74">
          <mxGeometry width="50" height="50" relative="1" as="geometry">
            <mxPoint x="380" y="310" as="sourcePoint" />
            <mxPoint x="430" y="260" as="targetPoint" />
          </mxGeometry>
        </mxCell>
        <mxCell id="VKoerTB2J1z5HWA6ZFg2-79" value="" style="endArrow=none;html=1;rounded=0;labelBorderColor=none;strokeColor=#000000;fontSize=15;fontColor=#000000;entryX=1;entryY=0.5;entryDx=0;entryDy=0;exitX=0;exitY=0.5;exitDx=0;exitDy=0;" edge="1" parent="1" source="VKoerTB2J1z5HWA6ZFg2-74" target="VKoerTB2J1z5HWA6ZFg2-74">
          <mxGeometry width="50" height="50" relative="1" as="geometry">
            <mxPoint x="380" y="310" as="sourcePoint" />
            <mxPoint x="430" y="260" as="targetPoint" />
          </mxGeometry>
        </mxCell>
        <mxCell id="VKoerTB2J1z5HWA6ZFg2-80" value="Request Cancellation/Rescheduling" style="text;html=1;strokeColor=none;fillColor=none;align=center;verticalAlign=middle;whiteSpace=wrap;rounded=0;fontSize=15;fontColor=#000000;" vertex="1" parent="1">
          <mxGeometry x="655" y="470" width="180" height="30" as="geometry" />
        </mxCell>
        <mxCell id="VKoerTB2J1z5HWA6ZFg2-82" value="" style="endArrow=classic;html=1;rounded=0;labelBorderColor=none;strokeColor=#000000;fontSize=15;fontColor=#000000;exitX=0.5;exitY=0;exitDx=0;exitDy=0;entryX=0.5;entryY=1;entryDx=0;entryDy=0;" edge="1" parent="1" source="VKoerTB2J1z5HWA6ZFg2-74" target="VKoerTB2J1z5HWA6ZFg2-48">
          <mxGeometry width="50" height="50" relative="1" as="geometry">
            <mxPoint x="380" y="350" as="sourcePoint" />
            <mxPoint x="430" y="300" as="targetPoint" />
          </mxGeometry>
        </mxCell>
        <mxCell id="VKoerTB2J1z5HWA6ZFg2-83" value="" style="endArrow=classic;html=1;rounded=0;labelBorderColor=none;strokeColor=#000000;fontSize=15;fontColor=#000000;exitX=0.5;exitY=1;exitDx=0;exitDy=0;entryX=0.5;entryY=0;entryDx=0;entryDy=0;" edge="1" parent="1" source="VKoerTB2J1z5HWA6ZFg2-48" target="VKoerTB2J1z5HWA6ZFg2-1">
          <mxGeometry width="50" height="50" relative="1" as="geometry">
            <mxPoint x="380" y="350" as="sourcePoint" />
            <mxPoint x="430" y="300" as="targetPoint" />
          </mxGeometry>
        </mxCell>
        <mxCell id="VKoerTB2J1z5HWA6ZFg2-84" value="Request to Cancel/Reschedule Appointment" style="text;html=1;strokeColor=none;fillColor=none;align=center;verticalAlign=middle;whiteSpace=wrap;rounded=0;fontSize=15;fontColor=#000000;" vertex="1" parent="1">
          <mxGeometry x="480" y="290" width="160" height="90" as="geometry" />
        </mxCell>
        <mxCell id="VKoerTB2J1z5HWA6ZFg2-85" value="Do: Request to cancel or reschedule appointment" style="text;html=1;strokeColor=none;fillColor=none;align=center;verticalAlign=middle;whiteSpace=wrap;rounded=0;fontSize=15;fontColor=#000000;" vertex="1" parent="1">
          <mxGeometry x="660" y="520" width="170" height="30" as="geometry" />
        </mxCell>
        <mxCell id="VKoerTB2J1z5HWA6ZFg2-86" value="" style="rounded=1;whiteSpace=wrap;html=1;strokeColor=default;fontSize=15;fontColor=#000000;fillColor=default;" vertex="1" parent="1">
          <mxGeometry x="400" y="460" width="220" height="60" as="geometry" />
        </mxCell>
        <mxCell id="VKoerTB2J1z5HWA6ZFg2-87" value="" style="endArrow=none;html=1;rounded=0;labelBorderColor=none;strokeColor=#000000;fontSize=15;fontColor=#000000;entryX=1;entryY=0.5;entryDx=0;entryDy=0;exitX=0;exitY=0.5;exitDx=0;exitDy=0;" edge="1" parent="1" source="VKoerTB2J1z5HWA6ZFg2-86" target="VKoerTB2J1z5HWA6ZFg2-86">
          <mxGeometry width="50" height="50" relative="1" as="geometry">
            <mxPoint x="380" y="310" as="sourcePoint" />
            <mxPoint x="430" y="260" as="targetPoint" />
          </mxGeometry>
        </mxCell>
        <mxCell id="VKoerTB2J1z5HWA6ZFg2-88" value="Appointment" style="text;html=1;strokeColor=none;fillColor=none;align=center;verticalAlign=middle;whiteSpace=wrap;rounded=0;fontSize=15;fontColor=#000000;" vertex="1" parent="1">
          <mxGeometry x="455" y="460" width="100" height="30" as="geometry" />
        </mxCell>
        <mxCell id="VKoerTB2J1z5HWA6ZFg2-90" value="Do: Both type of people attends appointment" style="text;html=1;strokeColor=none;fillColor=none;align=center;verticalAlign=middle;whiteSpace=wrap;rounded=0;fontSize=15;fontColor=#000000;" vertex="1" parent="1">
          <mxGeometry x="400" y="490" width="210" height="30" as="geometry" />
        </mxCell>
        <mxCell id="VKoerTB2J1z5HWA6ZFg2-91" value="" style="endArrow=classic;html=1;rounded=0;labelBorderColor=none;strokeColor=#000000;fontSize=15;fontColor=#000000;exitX=0.5;exitY=1;exitDx=0;exitDy=0;" edge="1" parent="1" source="VKoerTB2J1z5HWA6ZFg2-48" target="VKoerTB2J1z5HWA6ZFg2-86">
          <mxGeometry width="50" height="50" relative="1" as="geometry">
            <mxPoint x="380" y="320" as="sourcePoint" />
            <mxPoint x="430" y="270" as="targetPoint" />
          </mxGeometry>
        </mxCell>
        <mxCell id="VKoerTB2J1z5HWA6ZFg2-92" value="Accepts&amp;nbsp; Appointment" style="text;html=1;strokeColor=none;fillColor=none;align=center;verticalAlign=middle;whiteSpace=wrap;rounded=0;fontSize=15;fontColor=#000000;" vertex="1" parent="1">
          <mxGeometry x="430" y="375" width="100" height="30" as="geometry" />
        </mxCell>
      </root>
    </mxGraphModel>
  </diagram>
</mxfile>
